PathFileType	4	(X/Y/Z)	Walk8.trc
DataRate	CameraRate	NumFrames	NumMarkers	Units	OrigDataRate	OrigDataStartFrame	OrigNumFrames
200.000000	200.000000	4	61	mm	200.000000	159	439
Frame#	Times		LFHD		RFHD		LBHD		CLAV		STRN		LASI		RASI		RACR1		RUA1		RFA1		RWRR		RWRU		RCAR		LACR1		LUA1		LFA1		LWRU		LCAR		RTH3		RTH2		RTH4		RMFC		RTB1		RTB3		RTB4		RMT5		LTH1		LTH3		LTH2		LTH4		LLFC		LTB1		LTB3		LTB2		LTB4		LMMAL		LToe		RLFC		RTH1		RElbow		RToe		RTB2		T10		LElbow		RMT1		RMMAL		LMFC		LPSI		RBack		LWRR		LMT5		RBHD		RLMAL		LCAL		RPSI		RCAL		LLMAL		RElbowM		C7		LMT1		LElbowM
			X1	Y1	Z1	X2	Y2	Z2	X3	Y3	Z3	X4	Y4	Z4	X5	Y5	Z5	X6	Y6	Z6	X7	Y7	Z7	X8	Y8	Z8	X9	Y9	Z9	X10	Y10	Z10	X11	Y11	Z11	X12	Y12	Z12	X13	Y13	Z13	X14	Y14	Z14	X15	Y15	Z15	X16	Y16	Z16	X17	Y17	Z17	X18	Y18	Z18	X19	Y19	Z19	X20	Y20	Z20	X21	Y21	Z21	X22	Y22	Z22	X23	Y23	Z23	X24	Y24	Z24	X25	Y25	Z25	X26	Y26	Z26	X27	Y27	Z27	X28	Y28	Z28	X29	Y29	Z29	X30	Y30	Z30	X31	Y31	Z31	X32	Y32	Z32	X33	Y33	Z33	X34	Y34	Z34	X35	Y35	Z35	X36	Y36	Z36	X37	Y37	Z37	X38	Y38	Z38	X39	Y39	Z39	X40	Y40	Z40	X41	Y41	Z41	X42	Y42	Z42	X43	Y43	Z43	X44	Y44	Z44	X45	Y45	Z45	X46	Y46	Z46	X47	Y47	Z47	X48	Y48	Z48	X49	Y49	Z49	X50	Y50	Z50	X51	Y51	Z51	X52	Y52	Z52	X53	Y53	Z53	X54	Y54	Z54	X55	Y55	Z55	X56	Y56	Z56	X57	Y57	Z57	X58	Y58	Z58	X59	Y59	Z59	X60	Y60	Z60	X61	Y61	Z61

159	0.795	-391	1560.5	-32.276	-393.62	1564.1	67.602	-535.3	1500.8	-57.527	-434.86	1286.9	16.368	-415.92	1151.9	19.876	-462.8	882.1	-96.017	-463.61	898.27	154.53	-496.62	1321.3	187.14	-490	1152.2	241.12	-387.48	890.32	287.13	-333.33	784.26	278.35	-289.64	821.32	240.94	-265.34	752.51	282.48	-518.62	1337.4	-133.55	-584.02	1173.6	-187.18	-689.7	905.4	-227.01	-679.39	779.59	-233.72	-739.76	729.74	-251.62	-611.67	580.45	192.3	-532.09	647.57	183	-583.39	658.11	209.19	-700.29	443.59	41.577	-698.44	329.59	139.52	-789.87	183.39	120.73	-743.7	255.47	131.62	-817.19	24.16	140.1	-480.09	718.62	-167.7	-422.67	559.41	-134.88	-400.84	663.05	-131.11	-451.93	638.09	-153.17	-370.1	436.04	-108.63	-296.78	361.73	-47.406	-251.18	197.49	-36.209	-294.29	269.52	-100.36	-276.95	277.93	-42.254	-253.16	96.66	3.8458	-67.024	104.01	-46.268	-669.39	437.34	168.51	-552.42	737.56	229.22	-483.8	985.84	278.76	-729.32	20.47	88.675	-786.6	278.28	169.45	-623.41	1184.9	28.047	-653.92	1032.9	-195.56	-780.88	27.195	55.639	-867.38	124.75	51.968	-384.03	419.86	24.038	-636.37	938.72	-32.356	-619.77	1269.5	99.108	-740.58	797.8	-207.13	-147.61	65.013	-86.433	-537.22	1511.3	86.115	-891.91	113.4	130.46	-301.46	26.407	-27.744	-635.66	939.03	67.573	-946.18	111.44	86.012	-263.6	72.106	-74.203	-519.65	975.37	209.29	-542.95	1393.6	21.725	-118.18	91.441	-14.379	-653.19	1013.9	-123.59
160	0.8	-383.53	1560	-32.846	-386.25	1563.6	67.024	-527.7	1500.1	-58.291	-426.99	1286.3	15.566	-407.85	1151.3	19.111	-454.62	881.5	-96.49	-455.24	897.32	153.94	-489.18	1320.5	186.29	-482.96	1151.4	240.31	-380.44	889.58	286.62	-326.22	783.57	277.93	-282.48	820.65	240.59	-258.21	751.88	282.2	-510.65	1336.6	-134.48	-575.68	1172.7	-188.26	-680.92	904.36	-228.4	-670.46	778.58	-235.13	-730.72	728.7	-253.26	-603.4	579.54	192.12	-523.82	646.64	182.62	-575.09	657.23	208.83	-692.57	442.95	41.952	-692.06	328.82	139.88	-785.94	184.14	121.49	-738.53	255.48	132.21	-816.59	24.467	140.39	-471.5	718.46	-167.91	-414.16	559.33	-134.64	-392.32	662.96	-131.12	-443.38	637.96	-153.13	-361.98	435.63	-108.63	-289.62	360.51	-47.033	-245.82	195.9	-35.379	-287.94	268.25	-99.757	-270.67	276.56	-41.645	-249.04	95.151	4.6481	-62.859	99.613	-44.794	-661.4	436.43	168.65	-544.08	736.73	228.62	-476.81	985.08	278.05	-729.65	20.431	88.464	-781.02	279.07	170.08	-615.42	1184.1	27.095	-645.41	1031.9	-196.84	-780.96	27.139	55.744	-864.71	126.81	53.117	-376.29	419.66	23.928	-628.1	938.24	-32.947	-612.07	1268.7	97.924	-731.74	796.7	-208.69	-143.77	61.811	-85.206	-529.77	1510.5	85.331	-889.1	115.91	131.63	-298.3	26.262	-27.269	-627.31	938.32	67.036	-943.41	115.26	87.468	-259.5	70.891	-73.445	-512.5	974.54	208.49	-535.22	1392.8	20.77	-114.18	87.658	-13.048	-644.82	1012.9	-124.86
161	0.805	-376.06	1559.7	-33.421	-378.89	1563.1	66.439	-520.09	1499.5	-59.079	-419.08	1285.8	14.731	-399.74	1150.8	18.302	-446.48	881.02	-97	-446.82	896.38	153.29	-481.7	1319.8	185.4	-475.94	1150.7	239.45	-373.5	888.86	286.12	-319.26	782.85	277.54	-275.46	819.92	240.25	-251.26	751.2	281.96	-502.64	1335.9	-135.44	-567.25	1171.8	-189.36	-671.97	903.31	-229.84	-661.29	777.57	-236.58	-721.41	727.65	-254.95	-594.84	578.53	191.91	-515.33	645.7	182.18	-566.57	656.29	208.4	-684.48	442.19	42.334	-685.34	327.98	140.24	-781.71	184.92	122.26	-733.06	255.46	132.81	-815.92	24.852	140.69	-462.98	718.39	-168.15	-405.63	559.39	-134.4	-383.8	663	-131.23	-434.86	637.94	-153.11	-353.78	435.36	-108.62	-282.5	359.37	-46.603	-240.75	194.34	-34.491	-281.7	267.06	-99.112	-264.55	275.24	-40.98	-245.38	93.668	5.4653	-59.142	94.821	-43.232	-653	435.41	168.77	-535.58	735.86	227.96	-469.85	984.38	277.3	-730.01	20.375	88.258	-775.1	279.86	170.71	-607.4	1183.4	26.137	-636.78	1030.9	-198.16	-781.01	27.118	55.855	-861.74	128.95	54.296	-368.49	419.66	23.819	-619.87	937.85	-33.466	-604.33	1267.9	96.713	-722.68	795.58	-210.3	-140.45	58.441	-83.953	-522.32	1509.7	84.522	-886	118.54	132.81	-295.7	26.29	-26.813	-618.95	937.69	66.575	-940.28	119.28	88.948	-255.85	69.749	-72.682	-505.37	973.79	207.65	-527.45	1392.2	19.783	-110.65	83.577	-11.652	-636.36	1011.8	-126.18
162	0.81	-368.58	1559.4	-34.002	-371.53	1562.7	65.848	-512.47	1498.9	-59.892	-411.13	1285.3	13.864	-391.59	1150.3	17.454	-438.41	880.65	-97.547	-438.39	895.46	152.57	-474.15	1319.1	184.5	-468.93	1150.1	238.57	-366.66	888.14	285.6	-312.46	782.11	277.17	-268.56	819.14	239.94	-244.48	750.46	281.77	-494.59	1335.2	-136.43	-558.74	1171	-190.49	-662.83	902.27	-231.32	-651.87	776.57	-238.06	-711.81	726.59	-256.69	-585.99	577.44	191.64	-506.61	644.74	181.66	-557.83	655.29	207.92	-675.99	441.29	42.716	-678.26	327.07	140.6	-777.17	185.73	123.04	-727.24	255.42	133.4	-815.16	25.333	140.99	-454.55	718.4	-168.44	-397.09	559.57	-134.17	-375.3	663.18	-131.44	-426.37	638.02	-153.12	-345.51	435.27	-108.61	-275.43	358.32	-46.122	-235.94	192.84	-33.57	-275.54	265.99	-98.448	-258.59	274.01	-40.274	-242.09	92.253	6.2663	-55.818	89.742	-41.607	-644.17	434.28	168.85	-526.94	734.96	227.23	-462.94	983.75	276.52	-730.4	20.298	88.061	-768.81	280.66	171.33	-599.34	1182.7	25.179	-628.04	1030	-199.53	-781.02	27.15	55.974	-858.45	131.17	55.494	-360.66	419.86	23.711	-611.69	937.57	-33.908	-596.55	1267.2	95.483	-713.39	794.45	-211.97	-137.58	54.99	-82.709	-514.87	1508.9	83.689	-882.58	121.29	134.01	-293.56	26.49	-26.401	-610.6	937.12	66.194	-936.77	123.51	90.436	-252.58	68.715	-71.946	-498.27	973.1	206.77	-519.62	1391.6	18.77	-107.53	79.293	-10.22	-627.8	1010.8	-127.54
